<?xml version="1.0" encoding="UTF-8"?>
<svg version="1.1" xmlns="http://www.w3.org/2000/svg" width="223" height="210">
<path d="M0 0 C73.59 0 147.18 0 223 0 C223 69.3 223 138.6 223 210 C149.41 210 75.82 210 0 210 C0 140.7 0 71.4 0 0 Z " fill="#1B132D" transform="translate(0,0)"/>
<path d="M0 0 C73.59 0 147.18 0 223 0 C223 69.3 223 138.6 223 210 C149.41 210 75.82 210 0 210 C0 140.7 0 71.4 0 0 Z M33.75 40.8125 C22.32906205 55.84853323 17.66351299 71.58707494 17.734375 90.28125 C17.73246155 91.41598755 17.7305481 92.5507251 17.72857666 93.71984863 C17.72722435 96.103111 17.73085357 98.48638097 17.73925781 100.86962891 C17.74997064 104.49007929 17.73932953 108.11003355 17.7265625 111.73046875 C17.72788426 114.05989691 17.730447 116.38932477 17.734375 118.71875 C17.73032654 119.78677856 17.72627808 120.85480713 17.72210693 121.9552002 C17.84666695 142.20237194 24.48476041 159.16329462 38.375 173.875 C53.40790686 188.07707263 71.6065559 193.32390013 91.7890625 193.30078125 C93.22000246 193.30467976 94.65094128 193.30901675 96.08187866 193.31376648 C99.07236488 193.32119345 102.062733 193.32096477 105.05322266 193.31567383 C108.84178815 193.3099069 112.62986031 193.32675962 116.4183445 193.3500185 C119.37334917 193.36492608 122.32823997 193.36560438 125.2832756 193.36250877 C126.67759547 193.36301426 128.07192308 193.36810248 129.4662056 193.37832069 C142.01927107 193.45899371 155.00736451 192.46495139 166.25 186.375 C166.91201416 186.02727539 167.57402832 185.67955078 168.25610352 185.32128906 C185.10921305 176.15803659 196.3083809 161.19181387 202.1328125 143.01953125 C205.34251225 131.57372428 204.6374497 119.41374089 204.57641602 107.63037109 C204.56264767 104.87629502 204.56963256 102.12360333 204.59692383 99.36962891 C205.06569672 78.10342385 205.06569672 78.10342385 199 58 C198.52344971 56.98268799 198.04689941 55.96537598 197.5559082 54.91723633 C189.20992959 37.8710938 174.83679898 26.24590168 157.12495422 19.98345947 C147.73635369 17.02283441 139.10345208 16.40811302 129.33984375 16.46875 C127.77673605 16.46604505 126.21363 16.46215439 124.65052795 16.45715332 C121.39893328 16.45130694 118.14778265 16.45966286 114.89624023 16.47851562 C110.76554799 16.50132194 106.6358949 16.48814105 102.50524044 16.46422577 C99.28520625 16.44965094 96.06541143 16.45442632 92.84536934 16.46473694 C91.32380609 16.46737113 89.8022198 16.46425359 88.28068352 16.45481873 C67.05427818 16.35200333 47.60284511 24.26240905 33.75 40.8125 Z " fill="#000000" transform="translate(0,0)"/>
<path d="M0 0 C1.94681449 1.00679077 3.86465536 2.07030541 5.76171875 3.16796875 C7.44104492 4.13766602 7.44104492 4.13766602 9.15429688 5.12695312 C10.02622681 5.63560913 10.02622681 5.63560913 10.91577148 6.15454102 C12.66116893 7.17214838 14.41117939 8.18140183 16.16210938 9.18945312 C19.45751254 11.10029652 22.72855306 13.04852953 26 15 C27.38541992 15.7736792 27.38541992 15.7736792 28.79882812 16.56298828 C34.68806981 20.04586059 34.68806981 20.04586059 36.1953125 24.65625 C36.01128968 34.71616417 36.01128968 34.71616417 33.34765625 38.09765625 C30.98732041 39.69824565 28.58266441 40.79136842 26 42 C24.2842928 42.91072132 22.57615955 43.83582314 20.875 44.7734375 C17.05415586 46.87203029 13.22936707 48.96222658 9.39453125 51.03515625 C8.47349609 51.53466797 7.55246094 52.03417969 6.60351562 52.54882812 C4.73214526 53.56374207 2.85973589 54.57674241 0.98632812 55.58789062 C-0.83452133 56.57700983 -2.64974151 57.57657951 -4.45849609 58.58764648 C-6.09600794 59.49763746 -7.74942348 60.37985202 -9.42041016 61.22680664 C-11.50425086 62.35503169 -13.26423804 63.38667408 -15 65 C-16.16995626 68.53944063 -16.16995626 68.53944063 -16 72.3125 C-16.020625 73.56675781 -16.04125 74.82101563 -16.0625 76.11328125 C-16.041875 77.06589844 -16.02125 78.01851563 -16 79 C-15.39115967 78.6376123 -14.78231934 78.27522461 -14.1550293 77.90185547 C-11.33373439 76.2241845 -8.51062871 74.54958312 -5.6875 72.875 C-4.73037109 72.30523437 -3.77324219 71.73546875 -2.78710938 71.1484375 C2.89081473 67.78374173 8.61543375 64.53889009 14.42211914 61.40185547 C16.79892392 60.10934547 19.15509473 58.78786732 21.50390625 57.4453125 C22.52000977 56.86523438 22.52000977 56.86523438 23.55664062 56.2734375 C24.93046558 55.48686586 26.30279144 54.69767173 27.67382812 53.90625 C32.77953603 51 32.77953603 51 35 51 C35 65.52 35 80.04 35 95 C31.37 96.98 27.74 98.96 24 101 C21.9117917 102.17890633 19.82776558 103.36528481 17.75 104.5625 C10.35242695 108.811625 2.92836962 113.01377805 -4.51049805 117.19018555 C-8.83499786 119.62206896 -13.14454149 122.0621549 -17.37890625 124.6484375 C-18.013125 125.03064453 -18.64734375 125.41285156 -19.30078125 125.80664062 C-20.928184 126.79354673 -22.54470344 127.79833985 -24.16015625 128.8046875 C-27.75978626 130.31979999 -29.28068525 130.16053806 -33 129 C-35.70903773 127.68294773 -38.25433494 126.14994738 -40.8125 124.5625 C-45.42594819 121.70738296 -49.97707578 118.95403866 -54.890625 116.640625 C-66.18046283 111.13375486 -66.18046283 111.13375486 -67.73046875 107.09814453 C-68.45027784 102.62580131 -67.90393515 98.43105468 -67 94 C-63.26986495 95.39257249 -59.93665277 97.09747586 -56.5078125 99.1171875 C-55.47269531 99.72433594 -54.43757813 100.33148438 -53.37109375 100.95703125 C-52.29988281 101.58996094 -51.22867188 102.22289062 -50.125 102.875 C-46.99551486 104.71475793 -43.8656996 106.55392742 -40.73413086 108.39013672 C-39.08375123 109.36188449 -37.43741343 110.34060982 -35.79907227 111.33251953 C-32.84598793 113.09649732 -31.19461458 113.99265605 -27.6875 114.125 C-24.4203137 113.1282313 -22.3366507 112.10453984 -19.48046875 110.33203125 C-14.88818161 107.52575004 -10.24139951 104.84282335 -5.54931641 102.20727539 C-3.5549051 101.0855231 -1.56516467 99.95543543 0.42041016 98.81811523 C8.84846899 94.00120477 8.84846899 94.00120477 13.125 92.09375 C17.43744308 90.0662821 17.43744308 90.0662821 21 87 C22.25031052 82.25092139 22.35195314 77.87996568 22 73 C21.49476807 73.2902002 20.98953613 73.58040039 20.46899414 73.87939453 C8.38540276 80.8147951 -3.73645785 87.67701184 -15.90991211 94.45361328 C-16.92190674 95.01806152 -17.93390137 95.58250977 -18.9765625 96.1640625 C-19.87455566 96.66373535 -20.77254883 97.1634082 -21.69775391 97.67822266 C-23.506468 98.71665087 -25.26466544 99.84311029 -27 101 C-32.19218263 100.84784813 -36.54357355 97.58624006 -40.875 95 C-41.63296875 94.55527344 -42.3909375 94.11054688 -43.171875 93.65234375 C-44.81893744 92.683007 -46.45041152 91.68686659 -48.06835938 90.66967773 C-50.37347581 89.35682869 -52.47175381 88.38214941 -54.91601562 87.41040039 C-59.18206942 85.56166735 -63.05409227 83.69744757 -66 80 C-68.38360142 73.79880561 -68.0746692 67.07608869 -67.84570312 60.53442383 C-67.74988221 57.4336883 -67.80410496 54.36068502 -67.875 51.25976562 C-67.88280594 37.12493362 -67.88280594 37.12493362 -63.38012695 32.04321289 C-60.0035655 29.94143209 -56.69639507 28.45647249 -53 27 C-51.06974793 25.928044 -49.15560737 24.82637259 -47.26171875 23.69140625 C-45.40508662 22.64587484 -43.54699561 21.60293014 -41.6875 20.5625 C-40.69983643 20.0068335 -39.71217285 19.45116699 -38.69458008 18.87866211 C-34.23705646 16.37178007 -29.77457763 13.87376347 -25.3125 11.375 C-24.26364624 10.78682495 -24.26364624 10.78682495 -23.19360352 10.18676758 C-21.87992647 9.45055207 -20.56534286 8.71595134 -19.24975586 7.9831543 C-14.72835291 5.45267438 -10.33799469 2.75482866 -6.015625 -0.1015625 C-3.4240045 -1.25674218 -2.67057132 -0.90147468 0 0 Z " fill="#49DAC3" transform="translate(126,41)"/>
<path d="M0 0 C0.66 0.33 1.32 0.66 2 1 C2 1.99 2 2.98 2 4 C-0.475 3.505 -0.475 3.505 -3 3 C-3 3.66 -3 4.32 -3 5 C-3.66 5 -4.32 5 -5 5 C-5.33 5.99 -5.66 6.98 -6 8 C-9.5625 9.6875 -9.5625 9.6875 -13 11 C-13 11.66 -13 12.32 -13 13 C-15.64 13.33 -18.28 13.66 -21 14 C-21 14.99 -21 15.98 -21 17 C-20.34 17.33 -19.68 17.66 -19 18 C-19.99 18.99 -20.98 19.98 -22 21 C-19.69 21.66 -17.38 22.32 -15 23 C-17.63076871 25.99999941 -20.74179832 27.72382055 -24.1875 29.6875 C-25.27417969 30.31011719 -26.36085938 30.93273437 -27.48046875 31.57421875 C-28.31191406 32.04472656 -29.14335938 32.51523438 -30 33 C-30.66 32.34 -31.32 31.68 -32 31 C-31.34 31 -30.68 31 -30 31 C-30.22816406 30.39671875 -30.45632812 29.7934375 -30.69140625 29.171875 C-31.12259766 27.97304687 -31.12259766 27.97304687 -31.5625 26.75 C-31.85253906 25.96109375 -32.14257812 25.1721875 -32.44140625 24.359375 C-33.07987139 21.66264112 -33.20853384 20.49865646 -32 18 C-29.6640625 16.2890625 -29.6640625 16.2890625 -26.625 14.625 C-25.53832031 14.02171875 -24.45164062 13.4184375 -23.33203125 12.796875 C-22.23246094 12.20390625 -21.13289062 11.6109375 -20 11 C-19.03449219 10.46890625 -18.06898438 9.9378125 -17.07421875 9.390625 C-15.25940455 8.39465907 -13.44048362 7.40613322 -11.6171875 6.42578125 C-9.85910258 5.46801857 -8.11419244 4.48570277 -6.3828125 3.48046875 C-5.17238281 2.77857422 -5.17238281 2.77857422 -3.9375 2.0625 C-3.22464844 1.64097656 -2.51179688 1.21945313 -1.77734375 0.78515625 C-1.19082031 0.52605469 -0.60429687 0.26695313 0 0 Z " fill="#4DD1BC" transform="translate(152,96)"/>
<path d="M0 0 C0 14.52 0 29.04 0 44 C-6 47 -6 47 -8 47 C-7.34 44.03 -6.68 41.06 -6 38 C-4.68 38.66 -3.36 39.32 -2 40 C-2 29.11 -2 18.22 -2 7 C-2.66 7 -3.32 7 -4 7 C-4 6.01 -4 5.02 -4 4 C-4.99 3.67 -5.98 3.34 -7 3 C-2.25 0 -2.25 0 0 0 Z " fill="#52CCBC" transform="translate(161,92)"/>
<path d="M0 0 C0.59138067 4.7967543 0.9006139 9.23204408 0 14 C-2.94173869 16.99334814 -6.09570757 18.53589034 -10 20 C-10.66 18.68 -11.32 17.36 -12 16 C-11.01 15.01 -10.02 14.02 -9 13 C-9 14.32 -9 15.64 -9 17 C-8.34 17 -7.68 17 -7 17 C-6.67 15.35 -6.34 13.7 -6 12 C-4.35 12 -2.7 12 -1 12 C-1 9.36 -1 6.72 -1 4 C-1.7425 4.495 -2.485 4.99 -3.25 5.5 C-6 7 -6 7 -10 7 C-10.66 6.67 -11.32 6.34 -12 6 C-10.37829621 4.99466333 -8.75252763 3.99588093 -7.125 3 C-5.76761719 2.1646875 -5.76761719 2.1646875 -4.3828125 1.3125 C-2 0 -2 0 0 0 Z " fill="#122033" transform="translate(148,114)"/>
<path d="M0 0 C3.81433013 1.52573205 5.96552304 2.52746322 9 5 C8.01 5.495 8.01 5.495 7 6 C6.34 5.67 5.68 5.34 5 5 C5.061875 6.175625 5.061875 6.175625 5.125 7.375 C5 10 5 10 3 12 C3.66 12.61875 4.32 13.2375 5 13.875 C7 16 7 16 7 18 C2.25 16.125 2.25 16.125 0 15 C0 10.05 0 5.1 0 0 Z " fill="#4CC3B3" transform="translate(59,135)"/>
<path d="M0 0 C0.33 0 0.66 0 1 0 C1 3.96 1 7.92 1 12 C1.66 12 2.32 12 3 12 C2.67 10.68 2.34 9.36 2 8 C2.99 7.34 3.98 6.68 5 6 C5 6.66 5 7.32 5 8 C5.54269531 7.77183594 6.08539063 7.54367188 6.64453125 7.30859375 C7.35996094 7.02113281 8.07539062 6.73367187 8.8125 6.4375 C9.52019531 6.14746094 10.22789063 5.85742188 10.95703125 5.55859375 C13 5 13 5 16 6 C13.54481265 7.50537035 11.0861548 9.00444426 8.625 10.5 C7.92632812 10.92925781 7.22765625 11.35851562 6.5078125 11.80078125 C1.2265625 15 1.2265625 15 -1 15 C-1.02685412 12.68756208 -1.04632841 10.3750373 -1.0625 8.0625 C-1.07410156 6.77472656 -1.08570312 5.48695312 -1.09765625 4.16015625 C-1 1 -1 1 0 0 Z " fill="#142F3D" transform="translate(111,105)"/>
<path d="M0 0 C0.33 0 0.66 0 1 0 C1.02505615 1.25659424 1.0501123 2.51318848 1.07592773 3.80786133 C1.17002295 8.46519357 1.27023859 13.12237741 1.37231445 17.77954102 C1.41565529 19.79610729 1.45733098 21.81271007 1.49731445 23.8293457 C1.55503747 26.72618617 1.61872622 29.62284306 1.68359375 32.51953125 C1.70866249 33.87435356 1.70866249 33.87435356 1.73423767 35.25654602 C1.75418289 36.09719101 1.77412811 36.937836 1.79467773 37.80395508 C1.81799416 38.91315056 1.81799416 38.91315056 1.84178162 40.04475403 C1.93912225 42.2151671 1.93912225 42.2151671 3 45 C1.02 45.495 1.02 45.495 -1 46 C-1.495 44.515 -1.495 44.515 -2 43 C-1.34 43 -0.68 43 0 43 C0 28.81 0 14.62 0 0 Z " fill="#101A2E" transform="translate(58,78)"/>
<path d="M0 0 C0.33 0 0.66 0 1 0 C1 14.52 1 29.04 1 44 C2.32 44.33 3.64 44.66 5 45 C5 45.66 5 46.32 5 47 C3.35 46.34 1.7 45.68 0 45 C0 30.15 0 15.3 0 0 Z " fill="#56C7B9" transform="translate(60,76)"/>
<path d="M0 0 C2.97 0.495 2.97 0.495 6 1 C6 6.28 6 11.56 6 17 C5.34 16.67 4.68 16.34 4 16 C4.33 11.38 4.66 6.76 5 2 C3.741875 2.845625 2.48375 3.69125 1.1875 4.5625 C-0.95703125 6.00390625 -0.95703125 6.00390625 -3 7 C-3.99 6.67 -4.98 6.34 -6 6 C-5.34 6 -4.68 6 -4 6 C-4 5.01 -4 4.02 -4 3 C-3.01 3 -2.02 3 -1 3 C-0.67 2.01 -0.34 1.02 0 0 Z " fill="#52BAB0" transform="translate(143,112)"/>
<path d="M0 0 C0.66 0.33 1.32 0.66 2 1 C0.625 2.5 0.625 2.5 -1 4 C-1.66 4 -2.32 4 -3 4 C-3.33 4.66 -3.66 5.32 -4 6 C-4.99 6.33 -5.98 6.66 -7 7 C-7.73323796 9.01508358 -7.73323796 9.01508358 -8 11 C-8.66 11 -9.32 11 -10 11 C-10 10.34 -10 9.68 -10 9 C-11.98 9.33 -13.96 9.66 -16 10 C-13.88711957 7.69026736 -11.95489794 6.32135312 -9.125 5 C-6.66186852 3.82729586 -4.4432004 2.64897417 -2.125 1.1875 C-1.42375 0.795625 -0.7225 0.40375 0 0 Z " fill="#1A2D3F" transform="translate(143,145)"/>
<path d="M0 0 C0.66 0.33 1.32 0.66 2 1 C2 1.99 2 2.98 2 4 C0.35 3.67 -1.3 3.34 -3 3 C-3 3.66 -3 4.32 -3 5 C-3.66 5 -4.32 5 -5 5 C-5.33 5.99 -5.66 6.98 -6 8 C-8.64 8.33 -11.28 8.66 -14 9 C-9.80022081 5.3421278 -5.12798061 2.20634136 0 0 Z " fill="#55C3B6" transform="translate(152,96)"/>
<path d="M0 0 C0 1.98 0 3.96 0 6 C-0.33 5.34 -0.66 4.68 -1 4 C-1.7425 4.495 -2.485 4.99 -3.25 5.5 C-6 7 -6 7 -10 7 C-10.66 6.67 -11.32 6.34 -12 6 C-10.37829621 4.99466333 -8.75252763 3.99588093 -7.125 3 C-5.76761719 2.1646875 -5.76761719 2.1646875 -4.3828125 1.3125 C-2 0 -2 0 0 0 Z " fill="#162C3C" transform="translate(148,114)"/>
<path d="M0 0 C1.8125 0.8125 1.8125 0.8125 3.8125 2.8125 C2.4821875 2.68875 2.4821875 2.68875 1.125 2.5625 C-2.93031938 2.86856184 -4.1110184 4.28820741 -7.1875 6.8125 C-10 7.0625 -10 7.0625 -12.1875 6.8125 C-3.59375 -0.30803571 -3.59375 -0.30803571 0 0 Z " fill="#52C1B3" transform="translate(124.1875,40.1875)"/>
<path d="M0 0 C3 2 3 2 3.6875 4.625 C3.790625 5.40875 3.89375 6.1925 4 7 C0.40608886 5.66511872 -2.75490696 4.03977277 -6 2 C-5.38125 1.855625 -4.7625 1.71125 -4.125 1.5625 C-1.96741678 1.06847775 -1.96741678 1.06847775 0 0 Z " fill="#172A3A" transform="translate(67,134)"/>
<path d="M0 0 C2.02045442 0.60183749 4.02111039 1.27306096 6 2 C6.33 2.66 6.66 3.32 7 4 C2.545 4.495 2.545 4.495 -2 5 C-1 1 -1 1 0 0 Z " fill="#162437" transform="translate(75,130)"/>
<path d="M0 0 C-1.65 1.98 -3.3 3.96 -5 6 C-6.65 5.67 -8.3 5.34 -10 5 C-10 4.34 -10 3.68 -10 3 C-3.375 -1.125 -3.375 -1.125 0 0 Z " fill="#51CAB9" transform="translate(83,65)"/>
<path d="M0 0 C1.11375 0.556875 1.11375 0.556875 2.25 1.125 C1.125 2.6875 1.125 2.6875 -0.75 4.125 C-3.9375 3.8125 -3.9375 3.8125 -6.75 3.125 C-6.75 2.465 -6.75 1.805 -6.75 1.125 C-4.02098495 -0.69434337 -3.21400584 -1.02263822 0 0 Z " fill="#50C8B9" transform="translate(99.75,166.875)"/>
<path d="M0 0 C3.3 1.65 6.6 3.3 10 5 C6.30581799 6.231394 3.7943739 5.64432764 0 5 C0 3.35 0 1.7 0 0 Z " fill="#132B3B" transform="translate(62,122)"/>
<path d="M0 0 C0.8971875 0.309375 0.8971875 0.309375 1.8125 0.625 C-1.61096555 3.77458831 -4.63012737 4.18679109 -9.1875 4.625 C-2.52118644 -0.43220339 -2.52118644 -0.43220339 0 0 Z " fill="#50C4B4" transform="translate(133.1875,137.375)"/>
<path d="M0 0 C0.66 0.33 1.32 0.66 2 1 C1.67 2.65 1.34 4.3 1 6 C-0.9375 5.6875 -0.9375 5.6875 -3 5 C-3.33 4.01 -3.66 3.02 -4 2 C-2.125 0.9375 -2.125 0.9375 0 0 Z " fill="#1F0E2C" transform="translate(117,133)"/>
<path d="M0 0 C-4.95 2.475 -4.95 2.475 -10 5 C-10 4.01 -10 3.02 -10 2 C-9.34 2 -8.68 2 -8 2 C-8 1.34 -8 0.68 -8 0 C-4.63458162 -1.08174162 -3.70152678 -0.92538169 0 0 Z " fill="#11303D" transform="translate(70,71)"/>
<path d="M0 0 C-0.33 1.32 -0.66 2.64 -1 4 C-3.64 4.33 -6.28 4.66 -9 5 C-6.45523312 2.20075644 -3.92372883 0 0 0 Z " fill="#4FBDB1" transform="translate(112,47)"/>
<path d="M0 0 C3.3 0 6.6 0 10 0 C9.67 0.66 9.34 1.32 9 2 C2.57142857 3.28571429 2.57142857 3.28571429 0 2 C0 1.34 0 0.68 0 0 Z " fill="#112D3B" transform="translate(93,153)"/>
<path d="M0 0 C3.465 1.485 3.465 1.485 7 3 C6.34 3.66 5.68 4.32 5 5 C4.34 4.67 3.68 4.34 3 4 C2.67 4.66 2.34 5.32 2 6 C1.34 5.34 0.68 4.68 0 4 C0 2.68 0 1.36 0 0 Z " fill="#53CCBB" transform="translate(61,136)"/>
<path d="M0 0 C1.32 0 2.64 0 4 0 C4 0.66 4 1.32 4 2 C5.175625 2.185625 5.175625 2.185625 6.375 2.375 C9 3 9 3 11 5 C10.01 5.495 10.01 5.495 9 6 C6.8359375 5.00390625 6.8359375 5.00390625 4.375 3.5625 C3.55773437 3.08941406 2.74046875 2.61632813 1.8984375 2.12890625 C1.27195313 1.75636719 0.64546875 1.38382813 0 1 C0 0.67 0 0.34 0 0 Z " fill="#183845" transform="translate(131,44)"/>
<path d="M0 0 C-1 2 -1 2 -3.3125 3.1875 C-6.11989571 4.03624754 -7.301935 3.99928333 -10 3 C-3.375 -1.125 -3.375 -1.125 0 0 Z " fill="#152C3C" transform="translate(137,122)"/>
<path d="M0 0 C0 0.66 0 1.32 0 2 C-0.99 2 -1.98 2 -3 2 C-3 2.66 -3 3.32 -3 4 C-3.66 4 -4.32 4 -5 4 C-5 4.66 -5 5.32 -5 6 C-6.32 5.34 -7.64 4.68 -9 4 C-2.25 0 -2.25 0 0 0 Z " fill="#4BBFB2" transform="translate(119,145)"/>
<path d="M0 0 C-2.85306797 2.32472205 -5.54074837 3.7508258 -9 5 C-7.35234966 0.05704899 -4.76872479 -0.25776891 0 0 Z " fill="#0F2736" transform="translate(96,55)"/>
<path d="M0 0 C1.32 0.66 2.64 1.32 4 2 C1.69 3.32 -0.62 4.64 -3 6 C-3 3 -3 3 -1.5 1.3125 C-0.7575 0.6628125 -0.7575 0.6628125 0 0 Z " fill="#4FC5B6" transform="translate(135,146)"/>
<path d="M0 0 C1.65 0.33 3.3 0.66 5 1 C4 3 4 3 0.9375 4.125 C-0.031875 4.41375 -1.00125 4.7025 -2 5 C-1.34 3.35 -0.68 1.7 0 0 Z " fill="#4FC6B7" transform="translate(148,80)"/>
</svg>
